<?xml version="1.0" encoding="utf-8"?>
<!DOCTYPE svg PUBLIC "-//W3C//DTD SVG 1.0//EN" "http://www.w3.org/TR/2001/REC-SVG-20010904/DTD/svg10.dtd">
<svg version="1.0" xmlns="http://www.w3.org/2000/svg" width="512px" height="359px" viewBox="0 0 512 359" preserveAspectRatio="xMidYMid meet">
 <g fill="#000000">
  <path d="M4.8 355.5 c-4.6 -2.6 -5 -5.9 -4.6 -44.8 l0.3 -35.9 2.8 -2.4 2.8 -2.4 38.5 0 38.6 0 2.9 -2.9 2.9 -2.9 0 -15.1 c0 -8.5 0.5 -16 1.1 -17.4 0.7 -1.5 4.1 -3.7 10.2 -6.6 18.9 -8.9 29.9 -25.7 30 -45.6 0.2 -20.6 -10.7 -37.5 -30 -46.6 -6.1 -2.9 -9.5 -5.1 -10.2 -6.6 -0.6 -1.4 -1.1 -8.9 -1.1 -17.4 l0 -15.1 -2.9 -2.9 -2.9 -2.9 -38.6 0 -38.5 0 -2.8 -2.4 -2.8 -2.4 -0.3 -35.9 c-0.2 -24.1 0 -37 0.8 -39.5 2.1 -7.3 -6.5 -6.9 124.1 -6.6 l117.1 0.3 2.4 2.8 2.4 2.8 0 50.7 c0 43.5 -0.2 51.1 -1.5 52.9 -0.9 1.3 -4.6 3.2 -9.3 4.7 -31.1 10.4 -50.1 39.9 -46.1 71.7 1.9 15.3 8 27.8 19 38.8 7.7 7.8 16.4 13.1 27.1 16.7 4.7 1.5 8.4 3.4 9.3 4.7 1.3 1.8 1.5 9.4 1.5 52.9 l0 50.7 -2.4 2.8 -2.4 2.8 -117.4 0.2 c-101.9 0.2 -117.7 0 -120 -1.2z"/>
  <path d="M270.4 356 c-5.5 -2.2 -5.4 -1.3 -5.4 -56 0 -43.3 0.2 -50.9 1.5 -52.7 0.9 -1.3 4.6 -3.2 9.3 -4.7 10.7 -3.6 19.4 -8.9 27.1 -16.7 11 -11 17.3 -23.9 19 -38.9 2.3 -21.1 -4.3 -40.2 -19 -54.9 -7.7 -7.8 -16.4 -13.1 -27.1 -16.7 -4.7 -1.5 -8.4 -3.4 -9.3 -4.7 -1.3 -1.8 -1.5 -9.4 -1.5 -52.9 l0 -50.7 2.4 -2.8 2.4 -2.8 116.9 -0.3 c88.4 -0.2 117.5 0.1 119.7 1 5.3 2.2 5.6 4.4 5.6 42.3 0 36.7 -0.4 40 -4.8 42.4 -1.4 0.7 -14.8 1.1 -40.2 1.1 l-38.2 0 -2.9 2.9 -2.9 2.9 0 15.1 c0 8.9 -0.5 16 -1.1 17.4 -0.8 1.7 -3.7 3.7 -9.8 6.3 -18.6 8.4 -30.2 25.6 -30.4 45.4 -0.2 21 10.5 37.9 30 47.1 6.1 2.9 9.5 5.1 10.2 6.6 0.6 1.4 1.1 8.9 1.1 17.4 l0 15.1 2.9 2.9 2.9 2.9 38.6 0 38.5 0 2.8 2.4 2.8 2.4 0.3 35.9 c0.2 24.1 0 37 -0.8 39.5 -2.1 7.3 6.3 6.8 -122.7 6.7 -63.7 0 -116.8 -0.4 -117.9 -0.9z"/>
  <path d="M3.3 249.6 l-2.8 -2.4 0 -68.2 0 -68.2 2.8 -2.4 2.8 -2.4 30 0 30 0 2.4 2.5 2.5 2.4 0 68.1 0 68.1 -2.5 2.4 -2.4 2.5 -30 0 -30 0 -2.8 -2.4z"/>
  <path d="M443.5 249.5 l-2.5 -2.4 0 -68.1 0 -68.1 2.5 -2.4 2.4 -2.5 30 0 30 0 2.8 2.4 2.8 2.4 0 68.2 0 68.2 -2.8 2.4 -2.8 2.4 -30 0 -30 0 -2.4 -2.5z"/>
  <path d="M235.1 222.5 c-14.2 -6.8 -24.8 -21.3 -27 -36.7 -2.9 -20.8 8.2 -41.4 27.3 -50.4 12.5 -6 11.6 -9.5 11.6 43.6 0 43.4 -0.1 45 -1.9 46 -2.5 1.3 -1.6 1.5 -10 -2.5z"/>
  <path d="M266.8 224.9 c-1.7 -0.9 -1.8 -4.2 -1.8 -45.9 0 -53.1 -0.9 -49.6 11.6 -43.6 30.1 14.3 37.1 54.1 13.6 77.5 -7.9 7.9 -19.9 14.1 -23.4 12z"/>
  <path d="M90.5 207.3 c-2.2 -2.2 -2.2 -54.4 0 -56.6 2.3 -2.4 5.5 -0.9 12.1 5.7 7 7 9.6 13.1 9.6 22.6 0 9.5 -2.6 15.6 -9.6 22.6 -6.6 6.6 -9.8 8.1 -12.1 5.7z"/>
  <path d="M416.2 207.3 c-5.1 -2.5 -12.8 -11.6 -14.7 -17.4 -4.5 -13.6 0.1 -28.9 11.2 -36.8 5.2 -3.8 7 -4.3 8.8 -2.5 2.3 2.3 2.3 54.5 -0.1 56.8 -0.8 0.9 -1.6 1.6 -1.7 1.6 -0.1 0 -1.7 -0.8 -3.5 -1.7z"/>
 </g>
</svg>