<?xml version="1.0" standalone="no"?>
<!DOCTYPE svg PUBLIC "-//W3C//DTD SVG 20010904//EN"
 "http://www.w3.org/TR/2001/REC-SVG-20010904/DTD/svg10.dtd">
<svg version="1.0" xmlns="http://www.w3.org/2000/svg"
 width="512.000000pt" height="512.000000pt" viewBox="0 0 512.000000 512.000000"
 preserveAspectRatio="xMidYMid meet">

<g transform="translate(0.000000,512.000000) scale(0.100000,-0.100000)"
fill="#444444" stroke="none">
<path d="M4147 5021 c-94 -50 -496 -261 -892 -470 -536 -283 -726 -387 -744
-410 -13 -17 -26 -50 -28 -75 -5 -41 2 -58 82 -211 51 -99 83 -171 78 -176 -5
-5 -124 -69 -264 -143 l-254 -134 -61 116 c-97 184 -117 215 -154 240 -69 47
-87 40 -565 -213 -605 -320 -650 -349 -840 -540 -259 -259 -417 -573 -487
-965 -8 -47 -13 -148 -12 -270 0 -171 4 -210 27 -321 36 -170 76 -289 149
-437 l60 -123 -82 -85 c-94 -98 -136 -176 -153 -284 -44 -288 221 -550 510
-502 102 17 184 63 282 157 l85 82 110 -53 c740 -355 1620 -149 2133 498 340
429 453 997 308 1554 -61 233 -10 441 146 594 77 76 34 52 859 483 599 314
636 335 658 372 43 75 45 72 -303 730 -174 330 -327 611 -339 624 -25 28 -75
51 -111 51 -14 0 -103 -40 -198 -89z m-2136 -2269 c286 -76 523 -272 645 -536
125 -271 117 -581 -20 -861 -139 -281 -390 -479 -701 -551 -115 -27 -320 -25
-435 3 -297 74 -529 261 -657 529 -73 155 -87 221 -87 424 0 161 3 182 27 265
115 385 422 667 806 740 106 20 321 13 422 -13z m-1435 -2370 c-61 -63 -107
-81 -165 -64 -73 22 -120 97 -106 169 4 24 24 54 61 93 l54 57 104 -101 103
-101 -51 -53z"/>
<path d="M1600 2460 c-41 -11 -113 -39 -160 -62 -117 -58 -247 -187 -308 -305
-109 -210 -111 -453 -5 -656 54 -103 183 -230 283 -279 291 -143 619 -80 843
162 69 74 134 187 161 280 97 323 -44 660 -335 804 -52 25 -125 53 -164 61
-97 20 -224 18 -315 -5z"/>
<path d="M2524 5066 c-17 -8 -40 -25 -51 -39 -33 -43 -213 -491 -213 -532 0
-42 18 -81 54 -114 37 -35 127 -41 173 -12 40 25 49 44 158 311 96 232 105
278 67 329 -48 65 -120 86 -188 57z"/>
<path d="M1599 5017 c-41 -27 -69 -79 -69 -127 0 -48 226 -482 274 -527 97
-91 254 -15 243 117 -3 34 -35 103 -127 278 -100 189 -131 239 -159 258 -47
32 -115 33 -162 1z"/>
<path d="M1097 4305 c-51 -18 -85 -51 -98 -96 -22 -71 14 -152 78 -178 44 -17
484 -111 523 -111 154 0 193 230 48 284 -32 12 -502 118 -511 116 -1 -1 -19
-7 -40 -15z"/>
</g>
</svg>
