<?xml version="1.0" standalone="no"?>
<!DOCTYPE svg PUBLIC "-//W3C//DTD SVG 20010904//EN"
 "http://www.w3.org/TR/2001/REC-SVG-20010904/DTD/svg10.dtd">
<svg version="1.0" xmlns="http://www.w3.org/2000/svg"
 width="512.000000pt" height="512.000000pt" viewBox="0 0 512.000000 512.000000"
 preserveAspectRatio="xMidYMid meet">

<g transform="translate(0.000000,512.000000) scale(0.100000,-0.100000)"
fill="#444444" stroke="none">
<path d="M2400 4555 c-50 -27 -50 -28 -53 -555 l-2 -495 -234 -7 c-129 -4
-251 -4 -272 1 -24 5 -46 4 -65 -4 -16 -6 -105 -17 -199 -24 -550 -39 -1025
-120 -1265 -216 -48 -19 -90 -35 -94 -35 -3 0 -6 75 -6 168 l0 167 204 153
c221 166 236 184 220 250 -8 33 -33 55 -253 221 -238 179 -245 183 -284 178
-25 -3 -50 -16 -66 -31 l-26 -26 -3 -668 -2 -667 109 -981 c80 -720 113 -991
126 -1017 94 -199 597 -348 1392 -413 l82 -7 3 404 3 404 24 49 c28 57 89 119
142 147 70 35 159 40 621 37 396 -4 448 -6 490 -22 66 -25 141 -95 175 -164
l28 -57 3 -399 3 -399 82 7 c447 37 857 108 1070 187 180 66 304 156 327 237
6 20 60 479 120 1019 89 805 106 989 98 1022 -14 55 -72 118 -146 161 l-61 35
-1 170 0 170 204 153 c139 105 208 163 216 183 16 37 6 90 -23 117 -35 33
-440 333 -464 344 -31 15 -86 2 -114 -28 l-24 -26 -3 -499 c-1 -274 -4 -499
-7 -499 -2 0 -59 14 -127 30 -261 64 -678 121 -1071 146 -59 3 -124 12 -144
19 -23 8 -47 10 -65 5 -15 -5 -136 -6 -268 -3 l-240 6 0 136 1 136 203 152
c301 224 301 213 -21 456 -120 90 -228 169 -240 175 -29 16 -72 14 -103 -3z
m544 -1275 c3 -3 -32 -143 -78 -310 l-83 -305 -39 -7 c-49 -9 -501 -10 -569
-2 l-51 6 -82 302 c-45 166 -82 305 -82 308 0 4 17 9 38 11 54 6 939 3 946 -3z
m-1204 -15 c0 -4 142 -527 156 -577 5 -16 -2 -18 -60 -18 -81 0 -335 18 -474
34 l-102 11 -184 230 c-149 186 -181 231 -168 237 61 25 832 103 832 83z
m1785 -21 c223 -22 469 -55 478 -64 5 -4 -73 -111 -173 -236 -101 -126 -183
-230 -184 -231 -4 -5 -358 -33 -488 -39 -106 -5 -148 -4 -148 4 0 10 143 545
156 581 5 15 90 12 359 -15z m840 -131 c143 -34 304 -96 321 -124 21 -35 -132
-105 -351 -159 -178 -45 -377 -81 -373 -68 2 5 68 91 148 192 130 165 148 183
170 179 14 -3 52 -12 85 -20z m-3561 -170 c80 -101 146 -184 146 -187 0 -5
-193 30 -320 59 -201 45 -410 124 -410 155 0 30 194 110 375 153 51 13 62 3
209 -180z"/>
</g>
</svg>
